<svg width="100%" height="100%" viewBox="0 0 32 32" xmlns="http://www.w3.org/2000/svg" xml:space="preserve" version="1.1">
  <style>path { fill: #009511; }@media (prefers-color-scheme: dark) {path { fill: #d1ef39; }}</style>
  <path d="m13.03384,29.13843c-1.91692,0 -3.5723,-0.46154 -4.96615,-1.38769c-1.39692,-0.92615 -2.47384,-2.18154 -3.23384,-3.7723c-0.76308,-1.59077 -1.14154,-3.38154 -1.14154,-5.37538c0,-2.00615 0.38154,-3.8 1.14769,-5.38461c0.76308,-1.58461 1.84923,-2.83384 3.25846,-3.75077c1.40923,-0.91692 3.07692,-1.37538 5.00923,-1.37538c1.95077,0 3.59077,0.45846 4.92307,1.37538c1.33231,0.91692 2.33846,2.16923 3.02461,3.75384c0.68308,1.58461 1.02461,3.37846 1.02461,5.38153c0,1.99077 -0.34462,3.77846 -1.02769,5.36923c-0.68615,1.59077 -1.70154,2.84923 -3.04307,3.77538c-1.34154,0.92615 -3,1.39077 -4.97538,1.39077zm-0.23385,-3.49538c1.26769,0 2.30154,-0.29846 3.09846,-0.89846c0.79692,-0.6 1.38461,-1.42769 1.75692,-2.48923c0.37231,-1.06154 0.56,-2.27692 0.56,-3.6523c0,-1.38154 -0.18769,-2.60307 -0.56308,-3.65846c-0.37538,-1.05538 -0.95385,-1.88 -1.73538,-2.47077c-0.78154,-0.59077 -1.77846,-0.88615 -2.99384,-0.88615c-1.27692,0 -2.32615,0.31385 -3.15384,0.93846c-0.82769,0.62461 -1.44,1.46769 -1.83692,2.52923c-0.39692,1.06154 -0.59692,2.24307 -0.59692,3.54769c0,1.31692 0.2,2.50769 0.59692,3.5723c0.39692,1.06461 1,1.90769 1.80615,2.53231c0.80615,0.62461 1.82769,0.93538 3.06154,0.93538z"/>
  <path d="m22.72921,28.71382c-0.58154,-0.11692 -1.12615,-0.29231 -1.63384,-0.52c-0.94769,-0.42769 -1.66461,-1.10769 -2.15384,-2.03384c-0.42769,-0.82461 -0.65538,-1.66154 -0.68308,-2.51384c-0.02769,-0.85231 -0.04308,-1.81846 -0.04308,-2.90154l0,-18.7446l3.86461,0l0,18.54767c0,0.80308 0.00923,1.50154 0.02769,2.09231c0.01846,0.59077 0.14462,1.08615 0.37846,1.48923c0.14769,0.25538 0.32615,0.47385 0.53231,0.65538c0.56,-0.57846 1.34461,-0.93846 2.21231,-0.93846c1.69846,0 3.07692,1.37846 3.07692,3.07692c0,1.69846 -1.37846,3.07692 -3.07692,3.07692c-1.03077,0 -1.94154,-0.50769 -2.50154,-1.28615z"/>
</svg>