<svg xmlns="http://www.w3.org/2000/svg" width="100%" height="100%" viewBox="0 0 32 32">
<style>.b { fill: black; }.b2 { fill: #262626; }.f { fill: white; }@media (prefers-color-scheme: dark) {.b { fill: white; }.b2 { fill: #D9D9D9; }.f { fill: black; }}</style>
  <path class="b" d="M32 4v24c0 2.208-1.792 4-4 4H4c-2.208 0-4-1.792-4-4V4c0-2.208 1.792-4 4-4h24c2.208 0 4 1.792 4 4" />
  <path class="b2" d="M12.56 0h.348c.125 2.971-.968 5.303-3.877 5.738-1.16.174-2.266-.09-3.33-.608-1.342-.653-2.497-1.66-3.715-2.549a19 19 0 0 0-1.273-.859q.134-.194.29-.37.657.406 1.297.871c1.22.885 2.368 1.907 3.717 2.544.986.465 1.987.736 3.092.53C11.45 4.86 12.687 2.638 12.56 0m3.149 0h.422c.221 1.047.463 2.089.704 3.131.309 1.331.592 2.67 1.148 3.914.682 1.525 1.79 2.2 3.257 2.25.808.027 1.603-.119 2.389-.269 2.79-.535 5.574-.759 8.371-.45v.423a57 57 0 0 0-1.16-.148c-1.945-.231-3.869.073-5.792.368-1.356.208-2.704.502-4.085.449-1.495-.056-2.622-.743-3.313-2.302-.551-1.245-.828-2.585-1.147-3.913-.274-1.148-.553-2.296-.794-3.453m3.209 0h.581a7.4 7.4 0 0 0 2.744 2.707c1.625.933 3.384 1.063 5.137 1.106 1.556.038 3.104.063 4.62.46v.46c-1.185-.352-2.392-.544-3.628-.517q-2.1.043-4.171-.326c-2.369-.421-4.207-1.896-5.283-3.89m7.623 32h-.614c.771-1.198 1.904-1.409 4.151-.738q.082.025.163.051a4 4 0 0 1-.497.287c-1.486-.559-2.463-.466-3.203.4m-4.633 0h-.357a7.4 7.4 0 0 0-.983-2.634c-.63-1.02-1.601-1.408-2.618-1.526-2.962-.343-5.781-1.239-8.538-2.493-1.677-.764-3.445-.748-5.193-.233-1.41.416-2.807.898-4.219 1.305v-.416c1.254-.384 2.483-.881 3.749-1.216 2.248-.596 4.459-.571 6.622.464 2.425 1.16 4.958 1.832 7.574 2.17 2.276.294 3.406 1.217 3.963 4.579m-3.498 0h-.523l-.022-.034c-.481-.746-1.18-1.169-1.901-1.467-2.65-1.094-5.304-2.182-7.99-3.156-1.599-.581-3.242-.279-4.823.247a29 29 0 0 1-3.126.857A4 4 0 0 1 0 28.024a34 34 0 0 0 2.751-.774c2.409-.775 4.785-.768 7.156.277 1.881.829 3.81 1.517 5.706 2.303.972.403 1.952.833 2.595 1.834q.108.168.202.336m-5.153 0h-.974a18 18 0 0 1-.607-.333C8.52 29.827 5.3 29.031 1.719 30.15q-.455.142-.914.256a4 4 0 0 1-.253-.379q.52-.123 1.036-.278c3.718-1.11 7.119-.391 10.421 1.568.409.242.836.446 1.248.683M32 12.513c-2.706.253-5.234 1.26-7.445 3.482-1.147 1.152-1.883 2.709-2.678 4.186-1.308 2.431-3.101 4.056-5.675 4.386-1.596.204-3.073-.329-4.537-.936a14 14 0 0 1-1.079-.498c-2.289-1.183-4.583-1.166-6.945-.221-1.206.482-2.408.983-3.641 1.371v-.484c1.208-.411 2.392-.912 3.598-1.331 1.043-.362 2.096-.627 3.193-.686 1.798-.097 3.389.705 5.009 1.403 1.356.584 2.722 1.168 4.211.983 2.522-.314 4.246-1.963 5.541-4.319.86-1.563 1.646-3.196 2.908-4.417 2.272-2.197 4.833-3.093 7.54-3.306zm0 12.146c-.518-.574-1.034-1.15-1.626-1.616-2.405-1.893-2.175-5.082.762-6.606q.434-.224.864-.386v.478a7.8 7.8 0 0 0-1.578.981c-1.59 1.255-1.813 3.185-.328 4.581A35 35 0 0 1 32 24.035zM0 4.837c.606.418 1.19.899 1.762 1.428 3.04 2.812 6.347 5.154 9.859 7.112.965.538 2.062.764 3.073 1.206 1.619.71 2.149 2.981 1.095 4.531-.514.755-1.766 1.031-2.89.588-.585-.23-1.173-.486-1.71-.829-1.55-.99-3.118-.934-4.708-.198-1.868.865-3.717 1.781-5.591 2.626q-.443.2-.89.369v-.485q.285-.116.568-.243c1.9-.85 3.763-1.809 5.666-2.65 1.76-.776 3.526-.848 5.251.216.498.307 1.036.533 1.564.773.544.247 1.101.312 1.667.077.853-.354 1.138-1.159 1.215-2.071.075-.891-.515-1.889-1.36-2.256-1.06-.462-2.205-.709-3.218-1.271a51 51 0 0 1-9.866-7.1A22 22 0 0 0 0 5.395zm0 4.77c.744.693 1.416 1.48 1.998 2.38 1.14 1.762.838 3.644-.757 4.852A5.6 5.6 0 0 1 0 17.546v-.511c.492-.255.97-.586 1.425-.995 1.08-.97 1.146-2.268.333-3.585A11.6 11.6 0 0 0 0 10.277z"/>
  <path class="f" d="M13.034 29.138q-2.875.001-4.966-1.387-2.095-1.388-3.234-3.773-1.143-2.385-1.142-5.375 0-3.008 1.148-5.385 1.144-2.375 3.258-3.75c1.41-.917 3.077-1.376 5.01-1.376q2.924 0 4.923 1.376 1.997 1.376 3.024 3.754 1.025 2.376 1.025 5.381-.002 2.985-1.028 5.369-1.03 2.387-3.043 3.776-2.012 1.39-4.975 1.39m-.234-3.495q1.903.001 3.098-.898 1.197-.899 1.757-2.49.56-1.59.56-3.652c0-1.381-.187-2.603-.563-3.658q-.563-1.584-1.735-2.471-1.172-.886-2.994-.886-1.914.001-3.154.938-1.241.938-1.837 2.529-.596 1.592-.597 3.548 0 1.976.597 3.572.596 1.597 1.806 2.533t3.062.935"/>
  <path class="f" d="M22.729 28.714a7.7 7.7 0 0 1-1.634-.52 4.45 4.45 0 0 1-2.153-2.034q-.642-1.237-.684-2.514a92 92 0 0 1-.043-2.901V2h3.865v18.548q0 1.205.028 2.092.027.886.378 1.489.223.383.532.656a3.079 3.079 0 0 1 5.29 2.138 3.078 3.078 0 0 1-5.579 1.791"/>
</svg>